<svg width="466" height="411" viewBox="0 0 466 411" fill="none" xmlns="http://www.w3.org/2000/svg">
<path d="M353.364 247.922L308.333 247.75L303.499 209.768C303.499 209.768 301.775 210.633 290.734 214.771C279.69 218.919 271.927 217.364 267.439 195.61C262.952 173.859 256.916 143.126 256.916 143.126L259.505 122.069L272.961 104.975L339.389 100.316L344.907 180.072L353.364 247.922Z" fill="white"/>
<path d="M247.339 339.763L210.329 316.716C210.329 316.716 221.458 296.257 228.705 282.79C235.951 269.326 244.75 254.306 256.398 250.164C268.043 246.02 293.404 235.145 293.404 235.145L299.876 217.793L315.403 224.53L320.841 241.36L326.016 224.787L354.484 214.169C354.484 214.169 358.364 225.822 366.133 229.191C373.896 232.555 378.037 234.108 399.515 241.878C420.998 249.646 444.288 256.122 451.536 278.13C458.781 300.142 465.51 320.083 465.51 320.083L451.797 326.816L419.188 401.136H253.24L247.339 339.763Z" fill="#FF8D82"/>
<path d="M451.797 326.816L441.445 400.875H345.686L301.172 376.794L301.322 374.098C299.08 391.475 260.539 390.518 260.539 390.518L248.116 395.958H229.997L230.209 395.697H229.666L233.107 401.393H76.2687L18.2974 299.369H171.509L210.683 364.257L219.129 322.156L247.6 339.504L248.739 352.51L243.239 380.159C249.61 373.751 257.27 368.732 265.764 365.51L273.378 362.622C283.786 358.673 295.05 357.529 306.039 359.294L403.399 374.98L404.692 347.271L426.512 337.797L451.797 326.816Z" fill="white"/>
<path d="M267.096 163.675C272.801 163.675 277.445 168.322 277.445 174.032C277.445 179.741 272.801 184.388 267.096 184.388C266.668 184.388 266.251 184.354 265.834 184.302C264.52 177.808 263.176 171.116 261.964 165.051C263.481 164.178 265.227 163.675 267.096 163.675ZM253.293 172.994C253.811 197.856 258.64 212.011 268.82 219.95L275.828 215.179C276.216 215.461 276.611 215.726 277.016 215.95C280.528 217.887 284.832 217.727 290.977 215.42C298.369 212.648 301.596 211.34 302.934 210.773L304.151 219.899C304.2 220.246 304.494 220.499 304.837 220.499C304.866 220.499 304.899 220.499 304.929 220.495C305.308 220.443 305.573 220.092 305.525 219.712L304.185 209.675C304.155 209.454 304.021 209.262 303.824 209.156C303.626 209.053 303.392 209.049 303.191 209.147C303.119 209.184 301.277 210.078 290.488 214.126C284.758 216.273 280.81 216.46 277.686 214.738C273.378 212.357 270.339 206.236 268.117 195.471C267.48 192.372 266.806 189.085 266.125 185.724C266.444 185.751 266.769 185.773 267.096 185.773C273.565 185.773 278.829 180.505 278.829 174.032C278.829 167.558 273.565 162.29 267.096 162.29C265.141 162.29 263.302 162.777 261.682 163.623C260.145 155.915 258.852 149.378 258.153 145.84C261.931 140.705 266.721 132.471 267.439 122.928C267.439 122.928 278.138 152.278 322.826 156.768C322.826 156.768 333.694 201.825 330.761 215.118C330.761 215.118 338.3 213.505 347.566 209.597L348.3 216.073C348.345 216.453 348.687 216.718 349.067 216.683C349.447 216.638 349.722 216.295 349.677 215.915L348.896 209.024C357.273 205.353 366.799 199.84 373.378 191.984C387.696 174.893 367.51 143.82 367.51 143.82C367.51 143.82 371.308 123.447 360.263 104.46C358.023 100.605 355.534 96.8406 352.711 93.3823C358.305 90.6255 362.162 84.8799 362.162 78.2187C362.162 68.8746 354.593 61.2996 345.254 61.2996C336.148 61.2996 328.743 68.5083 328.381 77.529C320.047 75.7229 310.037 76.3522 297.806 80.6326C263.298 92.7199 255.882 106.356 254.67 127.419C253.464 148.48 253.464 151.416 253.464 151.416C253.464 151.416 253.517 151.366 253.546 151.335C253.264 156.655 253.098 163.78 253.293 172.994ZM262.661 159.473C262.948 159.317 269.73 155.687 275.962 160.355L275.137 161.466C269.603 157.324 263.392 160.653 263.332 160.686L262.661 159.473ZM286.534 158.493L285.611 157.46C285.841 157.252 291.406 152.371 300.517 156.659L299.925 157.912C291.68 154.033 286.743 158.31 286.534 158.493ZM293.815 196.806C293.862 196.276 293.743 195.851 293.519 195.725C293.285 195.594 292.742 195.666 291.912 196.259C287.479 199.456 282.594 199.664 282.39 199.67L282.337 198.285C282.386 198.285 287.021 198.076 291.104 195.136C292.631 194.037 293.632 194.197 294.204 194.519C294.931 194.936 295.293 195.81 295.196 196.925C295.001 199.138 292.976 202.176 288.981 203.602L288.515 202.294C291.933 201.073 293.657 198.595 293.815 196.806ZM280.376 179.131L278.45 193.576L284.308 191.672L284.735 192.991L276.786 195.573L279.001 178.948L280.376 179.131ZM267.957 177.048C267.957 176.142 268.69 175.408 269.595 175.408C270.499 175.408 271.233 176.142 271.233 177.048C271.233 177.952 270.499 178.687 269.595 178.687C268.69 178.687 267.957 177.952 267.957 177.048ZM294.518 174.804C294.518 175.71 293.784 176.444 292.88 176.444C291.974 176.444 291.24 175.71 291.24 174.804C291.24 173.9 291.974 173.165 292.88 173.165C293.784 173.165 294.518 173.9 294.518 174.804ZM294.012 181.451C288.303 181.451 283.66 176.809 283.66 171.098C283.66 165.386 288.303 160.743 294.012 160.743C299.716 160.743 304.36 165.386 304.36 171.098C304.36 176.809 299.716 181.451 294.012 181.451ZM305.745 171.098C305.745 164.622 300.48 159.358 294.012 159.358C287.539 159.358 282.275 164.622 282.275 171.098C282.275 177.568 287.539 182.837 294.012 182.837C300.48 182.837 305.745 177.568 305.745 171.098ZM351.858 297.81L379.966 299.793C379.835 303.996 378.446 327.216 364.051 327.216C361.013 327.216 358.486 326.101 356.55 323.905C350.407 316.958 351.531 301.208 351.858 297.81ZM364.051 328.601C371.189 328.601 376.446 323.455 379.262 313.72C381.339 306.521 381.366 299.446 381.366 299.152V298.504L350.633 296.335L350.551 296.988C350.452 297.781 348.228 316.582 355.508 324.823C357.725 327.331 360.6 328.601 364.051 328.601ZM315.97 224.928L302.959 243.205L292.991 235.7L293.821 234.589L302.658 241.241L314.842 224.123L315.97 224.928ZM338.557 243.211L325.453 225.193L326.575 224.38L338.838 241.237L360.013 224.756L360.863 225.853L338.557 243.211ZM315.709 336.556C316.963 336.556 317.988 337.581 317.988 338.839C317.988 340.1 316.963 341.123 315.709 341.123C314.451 341.123 313.426 340.1 313.426 338.839C313.426 337.581 314.451 336.556 315.709 336.556ZM315.709 342.51C317.731 342.51 319.373 340.864 319.373 338.839C319.373 336.817 317.731 335.171 315.709 335.171C313.683 335.171 312.042 336.817 312.042 338.839C312.042 340.864 313.683 342.51 315.709 342.51ZM322.795 280.246C324.219 280.246 325.372 281.405 325.372 282.829C325.372 284.252 324.219 285.411 322.795 285.411C321.369 285.411 320.216 284.252 320.216 282.829C320.216 281.405 321.369 280.246 322.795 280.246ZM322.795 286.796C324.982 286.796 326.762 285.015 326.762 282.829C326.762 280.641 324.982 278.861 322.795 278.861C320.609 278.861 318.829 280.641 318.829 282.829C318.829 285.015 320.609 286.796 322.795 286.796ZM110.451 355.509C110.451 348.606 116.041 343.009 122.945 343.009C129.844 343.009 135.438 348.606 135.438 355.509C135.438 362.414 129.844 368.009 122.945 368.009C116.041 368.009 110.451 362.414 110.451 355.509ZM171.118 300.06L209.838 364.59L209.741 365.073L210.183 365.167L210.288 365.342L231.87 400.7H76.6737L19.4854 300.06H171.118ZM219.611 323.263L246.936 339.913L248.042 352.47L242.337 380.089C240.937 381.523 239.575 383.001 238.309 384.572L229.956 394.907L211.476 364.623L211.305 364.339L219.611 323.263ZM266.01 366.158L273.623 363.271C283.905 359.368 295.077 358.237 305.928 359.98L403.291 375.666C403.484 375.691 403.683 375.645 403.835 375.518C403.987 375.393 404.08 375.212 404.092 375.013L405.366 347.737L450.936 327.942L440.841 400.182H345.859L301.578 376.225C301.976 374.928 302.159 373.558 302.122 372.116C302.11 371.732 301.75 371.448 301.411 371.44C301.027 371.448 300.725 371.769 300.737 372.153C300.827 375.391 299.656 378.248 297.27 380.64C287.555 390.38 260.829 389.84 260.554 389.824C260.464 389.82 260.353 389.844 260.26 389.885L247.972 395.264H231.45L239.385 385.443C246.388 376.777 255.593 370.108 266.01 366.158ZM251.028 395.435L260.677 391.214C263.115 391.258 288.396 391.494 298.25 381.62C299.496 380.371 300.443 379.005 301.09 377.536L344.814 401.193H310.836V395.435H251.028ZM442.054 401.193C442.091 401.124 442.119 401.05 442.128 400.973L452.48 326.914C452.515 326.664 452.414 326.417 452.214 326.261C452.011 326.113 451.752 326.082 451.52 326.179L405.329 346.243L402.948 304.424L401.568 304.502L403.998 347.279L402.744 374.172L306.148 358.613C295.054 356.824 283.64 357.987 273.136 361.973L265.517 364.861C257.553 367.883 250.28 372.461 244.125 378.285L249.419 352.647L249.439 352.547L248.303 339.607L268.084 289.009L266.795 288.503L247.253 338.483L218.647 321.049L210.247 362.577L171.901 298.675H17.1053L75.359 401.193H0.382324V410.716H459.687V401.193H442.054Z" fill="#100F0D"/>
<path d="M151 32.2801L296 7.28006L305 43.2801L157 69.2801L151 32.2801Z" fill="#FF6D5F"/>
<path d="M147 31.2801L292 6.28006L301 42.2801L153 68.2801L147 31.2801Z" fill="#459BFF"/>
<path d="M166.131 57.308L157.533 59.0147L152.719 34.7607L161.388 33.0398C163.827 32.5556 166.024 32.6242 167.977 33.2458C169.929 33.8595 171.558 34.9763 172.864 36.5963C174.179 38.2146 175.086 40.2831 175.586 42.8017C176.087 45.3281 176.041 47.5941 175.446 49.5996C174.859 51.6036 173.774 53.2675 172.19 54.5912C170.614 55.9134 168.595 56.819 166.131 57.308ZM161.789 53.6031L165.046 52.9566C166.562 52.6557 167.784 52.1341 168.711 51.3919C169.645 50.6403 170.26 49.6443 170.555 48.404C170.857 47.1541 170.829 45.6252 170.47 43.8172C170.114 42.025 169.559 40.613 168.804 39.5811C168.057 38.5476 167.113 37.8651 165.973 37.5335C164.832 37.202 163.503 37.1867 161.988 37.4876L158.719 38.1364L161.789 53.6031ZM190.062 52.9267C188.191 53.2982 186.505 53.2389 185.005 52.749C183.51 52.2496 182.261 51.3733 181.258 50.12C180.252 48.8589 179.559 47.269 179.178 45.3505C178.807 43.4793 178.844 41.765 179.29 40.2076C179.736 38.6502 180.539 37.3459 181.701 36.2946C182.871 35.2418 184.348 34.5383 186.132 34.1841C187.332 33.9458 188.488 33.9175 189.599 34.0991C190.716 34.2711 191.738 34.6633 192.664 35.2755C193.597 35.8862 194.396 36.7288 195.061 37.8031C195.724 38.8696 196.209 40.1766 196.516 41.7241L196.791 43.1097L181.431 46.1588L180.811 43.0323L191.422 40.9259C191.278 40.1995 190.992 39.5874 190.565 39.0896C190.138 38.5917 189.613 38.2405 188.989 38.036C188.373 37.822 187.697 37.7879 186.963 37.9336C186.197 38.0856 185.553 38.3981 185.032 38.8709C184.516 39.3343 184.152 39.8949 183.938 40.5529C183.722 41.203 183.681 41.888 183.816 42.608L184.406 45.5806C184.585 46.4806 184.905 47.2254 185.367 47.8149C185.836 48.4028 186.414 48.8132 187.101 49.0463C187.787 49.2793 188.553 49.312 189.397 49.1443C189.958 49.033 190.455 48.8522 190.89 48.6018C191.324 48.3514 191.676 48.0354 191.945 47.6538C192.214 47.2722 192.39 46.8352 192.473 46.3428L197.2 45.7244C197.185 46.8925 196.894 47.9679 196.326 48.9506C195.764 49.9238 194.953 50.7577 193.893 51.4523C192.839 52.1375 191.562 52.629 190.062 52.9267ZM214.492 28.8005L211.744 48.2534L206.059 49.3819L196.089 32.4538L201.418 31.3959L207.779 43.6612L207.969 43.6235L209.151 29.8607L214.492 28.8005ZM220.78 46.4597L215.965 22.2057L225.676 20.2779C227.461 19.9237 229.001 19.8928 230.298 20.1851C231.596 20.4774 232.638 21.0338 233.424 21.8542C234.209 22.6667 234.722 23.6809 234.964 24.8968C235.152 25.8442 235.127 26.7148 234.891 27.5084C234.653 28.2942 234.248 28.9819 233.676 29.5715C233.11 30.1516 232.423 30.6202 231.616 30.9774L231.663 31.2143C232.595 31.0704 233.511 31.1593 234.412 31.4811C235.321 31.8012 236.114 32.3454 236.792 33.1136C237.468 33.8738 237.924 34.8501 238.161 36.0422C238.416 37.3292 238.325 38.5414 237.886 39.6789C237.453 40.807 236.675 41.7862 235.551 42.6165C234.428 43.4468 232.958 44.0422 231.142 44.4026L220.78 46.4597ZM225.076 41.2494L229.256 40.4195C230.685 40.1359 231.673 39.6566 232.22 38.9817C232.766 38.299 232.948 37.4997 232.766 36.5839C232.633 35.9128 232.353 35.3528 231.928 34.9038C231.502 34.4549 230.96 34.1439 230.302 33.9709C229.652 33.7963 228.917 33.7906 228.096 33.9535L223.797 34.8069L225.076 41.2494ZM223.108 31.337L226.909 30.5824C227.612 30.4429 228.211 30.1967 228.708 29.8438C229.21 29.4814 229.574 29.0399 229.799 28.5193C230.032 27.9972 230.084 27.4163 229.958 26.7768C229.784 25.9004 229.331 25.2557 228.601 24.8427C227.879 24.428 226.949 24.3336 225.812 24.5593L221.916 25.3327L223.108 31.337ZM242.964 16.8462L247.778 41.1002L242.733 42.1017L237.919 17.8477L242.964 16.8462ZM260.109 39.0217C258.27 39.3869 256.601 39.3119 255.104 38.7967C253.613 38.272 252.365 37.3791 251.359 36.118C250.352 34.8489 249.664 33.2828 249.294 31.4195C248.921 29.5405 248.958 27.8262 249.406 26.2766C249.851 24.7192 250.664 23.4172 251.843 22.3708C253.029 21.3148 254.541 20.6042 256.381 20.2391C258.22 19.8739 259.885 19.9536 261.377 20.4783C262.874 20.9935 264.126 21.8856 265.133 23.1546C266.138 24.4158 266.827 25.9859 267.2 27.8649C267.57 29.7282 267.532 31.4386 267.086 32.996C266.639 34.5455 265.823 35.8483 264.637 36.9042C263.458 37.9507 261.949 38.6565 260.109 39.0217ZM259.357 35.1089C260.194 34.9428 260.846 34.5672 261.312 33.9822C261.777 33.3893 262.069 32.6502 262.189 31.7648C262.317 30.8778 262.275 29.9053 262.065 28.8474C261.855 27.7894 261.522 26.8749 261.065 26.1039C260.617 25.3313 260.064 24.7599 259.408 24.3896C258.752 24.0192 258.005 23.9171 257.168 24.0833C256.324 24.251 255.661 24.6328 255.18 25.2288C254.707 25.8233 254.407 26.564 254.279 27.451C254.16 28.3364 254.205 29.3081 254.415 30.366C254.625 31.424 254.954 32.3393 255.403 33.1118C255.86 33.8828 256.42 34.4527 257.084 34.8215C257.755 35.1808 258.512 35.2766 259.357 35.1089ZM281.897 41.8115C280.262 42.1359 278.816 42.1891 277.559 41.9711C276.31 41.7593 275.267 41.3387 274.428 40.7092C273.589 40.0797 272.972 39.3077 272.577 38.3931L277.118 36.8392C277.333 37.1742 277.625 37.469 277.996 37.7237C278.366 37.9784 278.823 38.1503 279.366 38.2395C279.918 38.335 280.562 38.3099 281.296 38.1641C282.393 37.9463 283.244 37.4984 283.848 36.8205C284.461 36.1489 284.644 35.1893 284.397 33.9419L283.736 30.6141L283.523 30.6564C283.402 31.2056 283.165 31.749 282.813 32.2868C282.46 32.8246 281.964 33.3046 281.326 33.7268C280.688 34.1489 279.887 34.4556 278.924 34.6468C277.558 34.9179 276.251 34.849 275.005 34.4399C273.765 34.0214 272.683 33.2226 271.76 32.0437C270.843 30.8553 270.184 29.2544 269.785 27.2412C269.376 25.1805 269.369 23.3928 269.766 21.8779C270.163 20.363 270.85 19.1516 271.827 18.2438C272.812 17.3343 273.971 16.7472 275.305 16.4823C276.324 16.2801 277.211 16.2846 277.967 16.4956C278.721 16.6987 279.358 17.0154 279.879 17.4455C280.405 17.8661 280.832 18.2985 281.158 18.7426L281.347 18.7049L280.741 15.6495L285.75 14.6551L289.397 33.0232C289.704 34.5707 289.582 35.9407 289.031 37.1333C288.48 38.326 287.585 39.316 286.346 40.1035C285.117 40.8974 283.634 41.4667 281.897 41.8115ZM279.77 30.5397C280.583 30.3783 281.23 30.0406 281.711 29.5267C282.198 29.0033 282.516 28.3328 282.666 27.5153C282.821 26.6884 282.794 25.742 282.582 24.6761C282.37 23.6103 282.037 22.7163 281.582 21.9943C281.125 21.2643 280.569 20.7386 279.915 20.4172C279.26 20.0958 278.526 20.0159 277.713 20.1773C276.884 20.3419 276.23 20.7056 275.751 21.2684C275.27 21.8234 274.962 22.5247 274.827 23.3722C274.691 24.2197 274.726 25.1606 274.932 26.1948C275.14 27.2449 275.466 28.1238 275.91 28.8317C276.361 29.5301 276.908 30.0328 277.552 30.34C278.202 30.6377 278.941 30.7043 279.77 30.5397Z" fill="white"/>
</svg>
